<svg width="25" height="24" viewBox="0 0 25 24" fill="none" xmlns="http://www.w3.org/2000/svg">
<g clip-path="url(#clip0_60_654)">
<path d="M24.4058 12C24.4058 5.37258 19.0332 0 12.4058 0C5.77834 0 0.405762 5.37258 0.405762 12C0.405762 17.9895 4.79396 22.954 10.5308 23.8542V15.4688H7.48389V12H10.5308V9.35625C10.5308 6.34875 12.3223 4.6875 15.0633 4.6875C16.3758 4.6875 17.7495 4.92188 17.7495 4.92188V7.875H16.2364C14.7458 7.875 14.2808 8.80008 14.2808 9.75V12H17.6089L17.0769 15.4688H14.2808V23.8542C20.0176 22.954 24.4058 17.9895 24.4058 12Z" fill="white"/>
</g>
<defs>
<clipPath id="clip0_60_654">
<rect width="24" height="24" fill="white" transform="translate(0.405762)"/>
</clipPath>
</defs>
</svg>
