<svg width="25" height="24" viewBox="0 0 25 24" fill="none" xmlns="http://www.w3.org/2000/svg">
<g clip-path="url(#clip0_60_659)">
<path fill-rule="evenodd" clip-rule="evenodd" d="M12.4058 0C5.77816 0 0.405762 5.3808 0.405762 12.0204C0.405762 17.3304 3.84376 21.8364 8.61256 23.4252C9.21256 23.5356 9.43096 23.1648 9.43096 22.8456C9.43096 22.5612 9.42136 21.804 9.41536 20.802C6.07696 21.528 5.37256 19.1904 5.37256 19.1904C4.82776 17.8008 4.04056 17.4312 4.04056 17.4312C2.95096 16.6872 4.12336 16.7016 4.12336 16.7016C5.32696 16.7856 5.96056 17.94 5.96056 17.94C7.03096 19.776 8.76976 19.2456 9.45256 18.9384C9.56296 18.162 9.87256 17.6328 10.2158 17.3328C7.55176 17.0292 4.74976 15.9972 4.74976 11.3916C4.74976 10.08 5.21776 9.006 5.98456 8.166C5.86096 7.8624 5.44936 6.6396 6.10216 4.986C6.10216 4.986 7.11016 4.662 9.40216 6.2172C10.3811 5.95022 11.3911 5.81423 12.4058 5.8128C13.4258 5.8176 14.4518 5.9508 15.4106 6.2172C17.7014 4.662 18.707 4.9848 18.707 4.9848C19.3622 6.6396 18.9494 7.8624 18.827 8.166C19.595 9.006 20.0606 10.08 20.0606 11.3916C20.0606 16.0092 17.2538 17.0256 14.5814 17.3232C15.0122 17.694 15.395 18.4272 15.395 19.5492C15.395 21.1548 15.3806 22.452 15.3806 22.8456C15.3806 23.1672 15.5966 23.5416 16.2062 23.424C18.5957 22.6225 20.673 21.0904 22.1443 19.0441C23.6157 16.9977 24.4068 14.5408 24.4058 12.0204C24.4058 5.3808 19.0322 0 12.4058 0Z" fill="white"/>
</g>
<defs>
<clipPath id="clip0_60_659">
<rect width="24" height="24" fill="white" transform="translate(0.405762)"/>
</clipPath>
</defs>
</svg>
