<svg width="25" height="24" viewBox="0 0 25 24" fill="none" xmlns="http://www.w3.org/2000/svg">
<path d="M24.4058 12C24.4058 5.37258 19.0332 0 12.4058 0C5.77835 0 0.405762 5.37258 0.405762 12C0.405762 18.6274 5.77835 24 12.4058 24C19.0332 24 24.4058 18.6274 24.4058 12Z" fill="white"/>
<path fill-rule="evenodd" clip-rule="evenodd" d="M18.2781 12.1365C18.2781 11.711 18.2399 11.3019 18.169 10.9092H12.5181V13.2301H15.7472C15.6081 13.9801 15.1853 14.6156 14.5499 15.041V16.5465H16.489C17.6235 15.5019 18.2781 13.9637 18.2781 12.1365Z" fill="#8D272B"/>
<path fill-rule="evenodd" clip-rule="evenodd" d="M12.5181 17.9999C14.1381 17.9999 15.4963 17.4626 16.489 16.5463L14.5499 15.0408C14.0126 15.4008 13.3254 15.6135 12.5181 15.6135C10.9553 15.6135 9.63262 14.5581 9.1608 13.1399H7.15625V14.6944C8.14352 16.6554 10.1726 17.9999 12.5181 17.9999Z" fill="#8D272B"/>
<path fill-rule="evenodd" clip-rule="evenodd" d="M9.1608 13.14C9.0408 12.78 8.97262 12.3954 8.97262 12C8.97262 11.6045 9.0408 11.22 9.1608 10.86V9.30542H7.15625C6.74989 10.1154 6.51807 11.0318 6.51807 12C6.51807 12.9682 6.74989 13.8845 7.15625 14.6945L9.1608 13.14Z" fill="#8D272B"/>
<path fill-rule="evenodd" clip-rule="evenodd" d="M12.5181 8.38637C13.399 8.38637 14.1899 8.6891 14.8117 9.28364L16.5326 7.56273C15.4935 6.59455 14.1354 6 12.5181 6C10.1726 6 8.14352 7.34455 7.15625 9.30546L9.1608 10.86C9.63262 9.44183 10.9553 8.38637 12.5181 8.38637Z" fill="#8D272B"/>
</svg>
