<svg width="25" height="24" viewBox="0 0 25 24" fill="none" xmlns="http://www.w3.org/2000/svg">
<path d="M0.405762 12C0.405762 18.6274 5.77835 24 12.4058 24C19.0332 24 24.4058 18.6274 24.4058 12C24.4058 5.37258 19.0332 0 12.4058 0C5.77835 0 0.405762 5.37258 0.405762 12Z" fill="white"/>
<path d="M9.10577 18H6.55576V9.975H9.10577V18ZM7.83076 8.85C7.00576 8.85 6.40576 8.25 6.40576 7.425C6.40576 6.6 7.08076 6 7.83076 6C8.65576 6 9.25576 6.6 9.25576 7.425C9.25576 8.25 8.65576 8.85 7.83076 8.85ZM18.4058 18H15.8558V13.65C15.8558 12.375 15.3308 12 14.5808 12C13.8308 12 13.0808 12.6 13.0808 13.725V18H10.5308V9.975H12.9308V11.1C13.1558 10.575 14.0558 9.75 15.3308 9.75C16.7558 9.75 18.2558 10.575 18.2558 13.05V18H18.4058Z" fill="#8D272B"/>
</svg>
